<?xml version="1.0" encoding="UTF-8" standalone="no"?>
<!-- Generator: Adobe Illustrator 16.2.1, SVG Export Plug-In . SVG Version: 6.00 Build 0)  -->
<!DOCTYPE svg  PUBLIC '-//W3C//DTD SVG 1.1//EN'  'http://www.w3.org/Graphics/SVG/1.1/DTD/svg11.dtd'>
<svg id="Layer_1" xmlns="http://www.w3.org/2000/svg" xml:space="preserve" height="60.68px" viewBox="0 0 301.1 60.68" width="301.1px" version="1.1" y="0px" x="0px" xmlns:xlink="http://www.w3.org/1999/xlink" enable-background="new 0 0 301.1 60.68">
	<g fill="#575756">
		<path d="m40.96 10.153l-4.514-0.153-0.671 0.5-9.874 25.124h-0.173l-10.044-24.952c-0.164-0.327-0.327-0.519-0.663-0.519h-4.35c-0.336 0-0.672 0.192-0.672 0.692v38.49c0 0.346 0.164 0.673 0.672 0.673h4.35c0.336 0 0.663-0.173 0.663-0.673l-0.663-28.291 9.038 22.761c0.164 0.173 0.164 0.346 0.672 0.499h2.007c0.336 0 0.5-0.326 0.663-0.499l9.046-22.588-0.844 27.945c0 0.327 0.173 0.673 0.671 0.673h4.524c0.163 0 0.5-0.154 0.834-0.346v-38.644c0-0.345-0.163-0.692-0.672-0.692z"/>
		<path d="m70.424 21.543h-4.524c-0.336 0-0.663 0.173-0.663 0.671v17.076c0 3.17-2.516 5.705-5.695 5.705-3.352 0-5.695-2.535-5.695-5.705v-17.075c0-0.345-0.163-0.671-0.663-0.671h-4.523c-0.336 0-0.672 0.173-0.672 0.671v16.575c0 6.359 4.523 10.699 10.881 10.699 3.688 0 5.358-1.998 6.367-1.998 0.163 0 0.5 0.346 0.5 0.845v0.826c0 0.327 0.163 0.673 0.672 0.673h3.841c0.509 0 0.672-0.154 0.846-0.5v-27.12c0-0.345-0.173-0.672-0.672-0.672z"/>
		<path d="m84.32 10h-4.36c-0.326 0-0.663 0.153-0.663 0.672v38.49c0 0.327 0.163 0.673 0.663 0.673h4.36c0.327 0 0.5-0.154 0.663-0.5v-38.663c0-0.326-0.163-0.672-0.663-0.672z"/>
		<path d="m115.95 21.371h-16.403c-0.509 0-0.672-0.327-0.672-0.653v-4.533c0-0.5-0.336-0.653-0.672-0.653h-2.006l-0.5 0.327-7.203 7.529-0.163 2.344c0 0.5 0.336 0.672 0.672 0.672h3.515c0.5 0 0.663 0.346 0.663 0.672v22.26c0 0.5 0.336 0.673 0.672 0.673h4.35c0.509 0 0.672-0.327 0.672-0.673v-22.26c0-0.519 0.336-0.519 0.672-0.519h11.38v22.779c0 0.5 0.336 0.673 0.672 0.673l5.022-8.701v-19.093c0.01-0.499-0.17-0.844-0.67-0.844z"/>
		<path d="m140.4 41.134c-0.173 0-0.336-0.173-0.509-0.173-0.5 0-0.999 1.172-2.344 2.689-0.663 0.653-2.007 1.345-3.515 1.345-3.343 0-5.685-2.535-5.685-5.705v-8.201c0-3.189 2.506-5.685 5.685-5.685 2.516 0 3.688 1.671 5.195 3.688 0 0.327 0.164 0.5 0.5 0.5 0.164 0 0.336 0 0.5-0.173l4.187-1.844c0.336 0 0.5-0.172 0.5-0.499 0-1.172-1.671-3.688-5.022-5.205-1.508-0.653-3.516-1.153-5.349-1.153-7.03 0-11.39 4.187-11.39 10.718v8.354c0 6.359 4.523 10.718 11.39 10.718 3.341 0 6.021-1.018 7.865-2.67 1.834-1.843 2.68-3.36 2.68-3.859 0 0-0.173-0.327-0.672-0.999l-4.03-1.846z"/>
		<path d="m160.96 21.044c-7.02 0-11.37 4.187-11.37 10.718v8.2c0 6.359 4.522 10.718 11.37 10.718 6.723 0 11.217-4.358 11.408-10.718v-8.2c0-6.358-4.53-10.718-11.41-10.718zm5.54 18.745c0 3.189-2.498 5.706-5.688 5.706-3.35 0-5.693-2.517-5.693-5.706v-8.201c0-3.188 2.516-5.685 5.693-5.685 3.344 0 5.688 2.496 5.688 5.685v8.201z"/>
		<path d="m190.43 21.87c-3.842 0-5.34 2.016-6.34 2.016-0.191 0-0.518-0.327-0.518-0.826v-0.845c0-0.345-0.174-0.671-0.674-0.671h-3.84c-0.346 0-0.672 0.173-0.672 0.671v26.947c0 0.327 0.172 0.673 0.672 0.673h4.34c0.346 0 0.691-0.154 0.691-0.673v-16.901c0-3.169 2.498-5.705 5.688-5.705 3.342 0 5.684 2.535 5.684 5.705v16.901c0 0.327 0.154 0.673 0.672 0.673h4.516c0.498 0 0.498-0.154 0.672-0.154v-17.093c0-6.358-4.36-10.718-10.89-10.718z"/>
		<path d="m217.22 25.73h1.844c2.67 0 3.842 1.843 5.359 3.688 0.154 0.173 0.154 0.499 0.5 0.499 0 0 0.326 0 0.5-0.173l3.686-1.844c0.326 0 0.5-0.153 0.5-0.499 0-2.67-4.033-6.53-10.371-6.53h-1.846c-5.875 0-10.045 3.688-10.045 9.219 0 4.513 2.844 6.357 8.855 7.682 5.205 1.018 8.049 1.518 8.049 4.188 0 2.19-1.844 3.688-4.688 3.688h-1.844c-2.67 0-3.859-1.844-5.359-3.688 0-0.153-0.152-0.499-0.498-0.499-0.154 0-0.346 0-0.5 0.173l-3.688 1.844c-0.328 0-0.5 0.327-0.5 0.5 0 2.67 3.842 6.529 10.217 6.529h1.846c6.186 0 10.371-3.859 10.371-9.546 0-5.033-3.189-6.53-10.045-7.874-4.686-0.999-6.857-1.651-6.857-4.188 0.01-1.997 1.51-2.996 4.52-3.169z"/>
		<path d="m256.89 21.543h-4.516c-0.326 0-0.672 0.173-0.672 0.671v17.076c0 3.17-2.344 5.705-5.684 5.705-3.344 0-5.688-2.535-5.688-5.705v-17.075c0-0.345-0.172-0.671-0.691-0.671h-4.34c-0.346 0-0.652 0.173-0.652 0.671v16.575c0 6.359 4.494 10.699 10.871 10.699 3.686 0 5.338-1.998 6.357-1.998 0.172 0 0.498 0.346 0.498 0.845v0.826c0 0.327 0.174 0.673 0.674 0.673h3.842c0.346 0 0.672-0.154 0.672-0.5v-27.12c0-0.345-0.18-0.672-0.67-0.672z"/>
		<path d="m270.79 10h-4.359c-0.326 0-0.672 0.153-0.672 0.672v38.49c0 0.327 0.172 0.673 0.672 0.673h4.359c0.5 0 0.652-0.154 0.652-0.5v-38.663c0-0.326-0.15-0.672-0.65-0.672z"/>
		<path d="m290.54 21.371h-4.514c-0.52 0-0.674-0.327-0.674-0.653v-4.533c0-0.5-0.346-0.653-0.672-0.653h-2.018l-0.498 0.327-7.184 7.529-0.172 2.171c0 0.499 0.326 0.672 0.672 0.672h3.496c0.518 0 0.691 0.326 0.691 0.672v22.26c0 0.519 0.326 0.673 0.652 0.673h4.359c0.5 0 0.672-0.346 0.672-0.673v-21.762c0-0.499 0.346-0.653 0.674-0.653h4.359c0.5 0 0.654-0.346 0.654-0.692v-3.842c0.17-0.498 0-0.843-0.5-0.843z"/>
	</g>
	<path d="m114.27 10.346c2.036 0 3.688 1.632 3.688 3.668 0 2.037-1.652 3.688-3.688 3.688-2.026 0-3.678-1.651-3.678-3.688 0.01-2.036 1.66-3.668 3.68-3.668z" fill="#F4991D"/>
</svg>
